nColumns=19
nRows=169
DataType=double
version=3
OpenSimVersion=4.1
endheader
time	ground_force_calcn_r_vx	ground_force_calcn_r_vy	ground_force_calcn_r_vz	ground_force_calcn_r_px	ground_force_calcn_r_py	ground_force_calcn_r_pz	ground_force_calcn_r_mx	ground_force_calcn_r_my	ground_force_calcn_r_mz	ground_force_calcn_l_vx	ground_force_calcn_l_vy	ground_force_calcn_l_vz	ground_force_calcn_l_px	ground_force_calcn_l_py	ground_force_calcn_l_pz	ground_force_calcn_l_mx	ground_force_calcn_l_my	ground_force_calcn_l_mz
0.895	0	0	0	0	0	0	0	0	0	0	0	0	0	0	0	0	0	0
0.9	0	0	0	0	0	0	0	0	0	0	0	0	0	0	0	0	0	0
0.905	0	0	0	0	0	0	0	0	0	0	0	0	0	0	0	0	0	0
0.91	0	0	0	0	0	0	0	0	0	0	0	0	0	0	0	0	0	0
0.915	0	0	0	0	0	0	0	0	0	0	0	0	0	0	0	0	0	0
0.92	0	0	0	0	0	0	0	0	0	0	0	0	0	0	0	0	0	0
0.925	0	0	0	0	0	0	0	0	0	0	0	0	0	0	0	0	0	0
0.93	0	0	0	0	0	0	0	0	0	0	0	0	0	0	0	0	0	0
0.935	0	0	0	0	0	0	0	0	0	0	0	0	0	0	0	0	0	0
0.94	0	0	0	0	0	0	0	0	0	0	0	0	0	0	0	0	0	0
0.945	0	0	0	0	0	0	0	0	0	0	0	0	0	0	0	0	0	0
0.95	0	0	0	0	0	0	0	0	0	0	0	0	0	0	0	0	0	0
0.955	0	0	0	0	0	0	0	0	0	0	0	0	0	0	0	0	0	0
0.96	0	0	0	0	0	0	0	0	0	0	0	0	0	0	0	0	0	0
0.965	0	0	0	0	0	0	0	0	0	0	0	0	0	0	0	0	0	0
0.97	0	0	0	0	0	0	0	0	0	0	0	0	0	0	0	0	0	0
0.975	0	0	0	0	0	0	0	0	0	0	0	0	0	0	0	0	0	0
0.98	0	0	0	0	0	0	0	0	0	0	0	0	0	0	0	0	0	0
0.985	0	0	0	0	0	0	0	0	0	0	0	0	0	0	0	0	0	0
0.99	0	0	0	0	0	0	0	0	0	0	0	0	0	0	0	0	0	0
0.995	-47.9962	84.3861	-11.8259	1.25168	0	-0.25753	0.522095	-0.917939	0.12864	0	0	0	0	0	0	0	0	0
1	-90.627	239.161	-28.0341	1.13228	0	-0.244073	1.2522	-3.3045	0.38735	0	0	0	0	0	0	0	0	0
1.005	-146.019	468.581	-53.5764	1.09638	0	-0.257583	2.02368	-6.49405	0.742514	0	0	0	0	0	0	0	0	0
1.01	-200.173	757.593	-82.2964	1.07343	0	-0.268452	2.44511	-9.25398	1.00525	0	0	0	0	0	0	0	0	0
1.015	-232.324	1095.19	-102.637	1.05471	0	-0.27829	1.72724	-8.14238	0.763073	0	0	0	0	0	0	0	0	0
1.02	-239.475	1467.09	-102.145	1.03634	0	-0.286003	-0.1399	0.857067	-0.0596727	0	0	0	0	0	0	0	0	0
1.025	-243.641	1834.93	-77.4919	1.01823	0	-0.290992	-2.01623	15.1848	-0.641278	0	0	0	0	0	0	0	0	0
1.03	-269.509	2149.22	-31.2342	1.00453	0	-0.293668	-3.20863	25.5874	-0.371856	0	0	0	0	0	0	0	0	0
1.035	-324.311	2384.86	34.2329	0.997112	0	-0.294561	-3.83586	28.2074	0.404896	0	0	0	0	0	0	0	0	0
1.04	-395.066	2551.73	109.85	0.99227	0	-0.294476	-4.22238	27.2724	1.17405	0	0	0	0	0	0	0	0	0
1.045	-453.559	2671.84	180.778	0.984569	0	-0.293803	-4.08541	24.0665	1.62835	0	0	0	0	0	0	0	0	0
1.05	-470.344	2760.2	230.553	0.970194	0	-0.292781	-2.8074	16.4752	1.37613	0	0	0	0	0	0	0	0	0
1.055	-431.298	2821.82	247.403	0.946467	0	-0.291767	-0.902607	5.90541	0.517757	0	0	0	0	0	0	0	0	0
1.06	-339.5	2854.64	226.15	0.913606	0	-0.291561	0.506009	-4.2547	-0.337066	0	0	0	0	0	0	0	0	0
1.065	-214.307	2856.97	175.953	0.875543	0	-0.292369	0.662289	-8.82908	-0.54376	0	0	0	0	0	0	0	0	0
1.07	-85.2178	2834.38	115.32	0.83815	0	-0.293604	0.0966059	-3.21315	-0.130731	0	0	0	0	0	0	0	0	0
1.075	29.0311	2789.17	64.2712	0.804779	0	-0.294384	0.0835309	8.02526	0.184927	0	0	0	0	0	0	0	0	0
1.08	130.116	2721.51	33.924	0.775714	0	-0.294505	0.801814	16.7708	0.20905	0	0	0	0	0	0	0	0	0
1.085	225.099	2631.03	21.9855	0.749947	0	-0.294076	1.85068	21.6313	0.180756	0	0	0	0	0	0	0	0	0
1.09	309.856	2512.89	17.7697	0.726145	0	-0.293432	3.00519	24.3717	0.172343	0	0	0	0	0	0	0	0	0
1.095	375.223	2359.03	14.49	0.703364	0	-0.29282	4.2029	26.4236	0.162303	0	0	0	0	0	0	0	0	0
1.1	417.631	2166.44	15.3512	0.681543	0	-0.291997	5.67197	29.4231	0.20849	0	0	0	0	0	0	0	0	0
1.105	441.615	1935.95	29.1245	0.659984	0	-0.29086	6.56211	28.7669	0.432771	0	0	0	0	0	0	0	0	0
1.11	452.24	1668.84	58.6842	0.63509	0	-0.290448	4.68426	17.2857	0.607846	0	0	0	0	0	0	0	0	0
1.115	451.93	1367.93	98.163	0.599318	0	-0.292945	-1.80975	-5.47788	-0.393094	0	0	0	0	0	0	0	0	0
1.12	441.954	1045.69	134.605	0.543358	0	-0.30266	-13.6194	-32.2243	-4.14803	0	0	0	0	0	0	0	0	0
1.125	419.921	726.077	151.999	0.456162	0	-0.32819	-29.2798	-50.6271	-10.5984	0	0	0	0	0	0	0	0	0
1.13	381.264	437.896	133.231	0.318975	0	-0.376768	-38.7848	-44.5458	-13.5532	0	0	0	0	0	0	0	0	0
1.135	322.511	211.595	74.965	0.153583	0	-0.401918	-23.256	-15.2579	-5.40566	0	0	0	0	0	0	0	0	0
1.14	244.356	64.5573	-2.72273	0.379132	0	-0.179289	6.51394	1.72094	-0.0725815	0	0	0	0	0	0	0	0	0
1.145	0	0	0	0	0	0	0	0	0	0	0	0	0	0	0	0	0	0
1.15	0	0	0	0	0	0	0	0	0	0	0	0	0	0	0	0	0	0
1.155	0	0	0	0	0	0	0	0	0	0	0	0	0	0	0	0	0	0
1.16	0	0	0	0	0	0	0	0	0	0	0	0	0	0	0	0	0	0
1.165	0	0	0	0	0	0	0	0	0	0	0	0	0	0	0	0	0	0
1.17	0	0	0	0	0	0	0	0	0	0	0	0	0	0	0	0	0	0
1.175	0	0	0	0	0	0	0	0	0	0	0	0	0	0	0	0	0	0
1.18	0	0	0	0	0	0	0	0	0	0	0	0	0	0	0	0	0	0
1.185	0	0	0	0	0	0	0	0	0	0	0	0	0	0	0	0	0	0
1.19	0	0	0	0	0	0	0	0	0	0	0	0	0	0	0	0	0	0
1.195	0	0	0	0	0	0	0	0	0	0	0	0	0	0	0	0	0	0
1.2	0	0	0	0	0	0	0	0	0	0	0	0	0	0	0	0	0	0
1.205	0	0	0	0	0	0	0	0	0	0	0	0	0	0	0	0	0	0
1.21	0	0	0	0	0	0	0	0	0	0	0	0	0	0	0	0	0	0
1.215	0	0	0	0	0	0	0	0	0	0	0	0	0	0	0	0	0	0
1.22	0	0	0	0	0	0	0	0	0	0	0	0	0	0	0	0	0	0
1.225	0	0	0	0	0	0	0	0	0	0	0	0	0	0	0	0	0	0
1.23	0	0	0	0	0	0	0	0	0	0	0	0	0	0	0	0	0	0
1.235	0	0	0	0	0	0	0	0	0	0	0	0	0	0	0	0	0	0
1.24	0	0	0	0	0	0	0	0	0	0	0	0	0	0	0	0	0	0
1.245	0	0	0	0	0	0	0	0	0	0	0	0	0	0	0	0	0	0
1.25	0	0	0	0	0	0	0	0	0	0	0	0	0	0	0	0	0	0
1.255	0	0	0	0	0	0	0	0	0	0	0	0	0	0	0	0	0	0
1.26	0	0	0	0	0	0	0	0	0	0	0	0	0	0	0	0	0	0
1.265	0	0	0	0	0	0	0	0	0	0	0	0	0	0	0	0	0	0
1.27	0	0	0	0	0	0	0	0	0	0	0	0	0	0	0	0	0	0
1.275	0	0	0	0	0	0	0	0	0	0	0	0	0	0	0	0	0	0
1.28	0	0	0	0	0	0	0	0	0	-38.9138	50.699	-9.1956	1.29908	0	-0.279201	3.89539	-5.07512	0.920506
1.285	0	0	0	0	0	0	0	0	0	-88.8348	195.401	3.77904	1.14596	0	-0.388238	3.14777	-6.92381	-0.133906
1.29	0	0	0	0	0	0	0	0	0	-159.143	426.876	42.1265	1.09965	0	-0.393329	2.18832	-5.86985	-0.57927
1.295	0	0	0	0	0	0	0	0	0	-233.541	730.14	103.615	1.09726	0	-0.379867	0.557165	-1.74192	-0.247198
1.3	0	0	0	0	0	0	0	0	0	-282.621	1071.47	170.254	1.0919	0	-0.366833	-0.793215	3.00724	0.477842
1.305	0	0	0	0	0	0	0	0	0	-295.474	1435.38	210.768	1.08212	0	-0.354364	-0.0840254	0.408185	0.059937
1.31	0	0	0	0	0	0	0	0	0	-300.96	1808.55	201.293	1.06579	0	-0.3433	2.15829	-12.9698	-1.44355
1.315	0	0	0	0	0	0	0	0	0	-325.695	2148.69	130.117	1.05036	0	-0.335038	4.04543	-26.6887	-1.61617
1.32	0	0	0	0	0	0	0	0	0	-372.894	2407.14	6.16831	1.04279	0	-0.330015	4.82214	-31.1284	-0.0797665
1.325	0	0	0	0	0	0	0	0	0	-444.488	2576.43	-136.135	1.03813	0	-0.328267	4.59182	-26.616	1.40636
1.33	0	0	0	0	0	0	0	0	0	-517.765	2681.3	-244.274	1.03044	0	-0.328746	2.834	-14.6762	1.33704
1.335	0	0	0	0	0	0	0	0	0	-550.238	2755.56	-283.387	1.01794	0	-0.329873	0.298219	-1.49346	0.153591
1.34	0	0	0	0	0	0	0	0	0	-529.214	2825.28	-249.705	0.997212	0	-0.330022	-0.790939	4.22253	-0.373198
1.345	0	0	0	0	0	0	0	0	0	-463.101	2885.38	-169.683	0.968039	0	-0.329469	-0.211292	1.31647	-0.0774189
1.35	0	0	0	0	0	0	0	0	0	-363.108	2912.6	-80.6213	0.934382	0	-0.329642	0.17001	-1.3637	0.0377475
1.355	0	0	0	0	0	0	0	0	0	-249.375	2900.6	-9.28766	0.898551	0	-0.330812	-0.125093	1.45502	-0.00465895
1.36	0	0	0	0	0	0	0	0	0	-140.379	2860.53	32.9665	0.862956	0	-0.332053	-0.210138	4.28201	0.0493485
1.365	0	0	0	0	0	0	0	0	0	-38.4009	2803.56	54.6073	0.830289	0	-0.332243	0.00958713	-0.699934	-0.0136332
1.37	0	0	0	0	0	0	0	0	0	58.7576	2733.52	69.5739	0.801072	0	-0.331288	-0.315258	-14.6664	-0.373292
1.375	0	0	0	0	0	0	0	0	0	147.789	2641.08	81.7782	0.773817	0	-0.329989	-1.74031	-31.1005	-0.962992
1.38	0	0	0	0	0	0	0	0	0	225.151	2516.07	82.2416	0.748064	0	-0.328941	-3.76187	-42.039	-1.37411
1.385	0	0	0	0	0	0	0	0	0	286.726	2361.53	56.254	0.724241	0	-0.328135	-5.41168	-44.5715	-1.06174
1.39	0	0	0	0	0	0	0	0	0	335.249	2186.72	-6.4502	0.702963	0	-0.327148	-5.339	-34.8245	0.102722
1.395	0	0	0	0	0	0	0	0	0	379.838	1993.95	-100.445	0.68424	0	-0.325061	-1.08762	-5.70946	0.287614
1.4	0	0	0	0	0	0	0	0	0	423.52	1776.88	-199.251	0.666477	0	-0.320408	9.65777	40.5192	-4.54364
1.405	0	0	0	0	0	0	0	0	0	458.88	1525.88	-262.998	0.64365	0	-0.31213	25.5892	85.0899	-14.6659
1.41	0	0	0	0	0	0	0	0	0	475.431	1237.63	-259.06	0.60142	0	-0.300889	39.7844	103.566	-21.6784
1.415	0	0	0	0	0	0	0	0	0	466.9	925.505	-183.216	0.515403	0	-0.293327	40.7041	80.685	-15.9727
1.42	0	0	0	0	0	0	0	0	0	429.968	621.114	-64.1958	0.360459	0	-0.316944	14.6457	21.1566	-2.18666
1.425	0	0	0	0	0	0	0	0	0	362.467	357.208	48.7161	0.14361	0	-0.447822	-37.3615	-36.8194	-5.02145
1.43	0	0	0	0	0	0	0	0	0	269.531	159.798	111.589	0.279399	0	-0.768339	-68.3202	-40.5054	-28.2853
1.435	0	0	0	0	0	0	0	0	0	167.075	37.9907	107.023	0.929783	0	-1.17543	-31.9801	-7.27188	-20.4855
1.44	0	0	0	0	0	0	0	0	0	0	0	0	0	0	0	0	0	0
1.445	0	0	0	0	0	0	0	0	0	0	0	0	0	0	0	0	0	0
1.45	0	0	0	0	0	0	0	0	0	0	0	0	0	0	0	0	0	0
1.455	0	0	0	0	0	0	0	0	0	0	0	0	0	0	0	0	0	0
1.46	0	0	0	0	0	0	0	0	0	0	0	0	0	0	0	0	0	0
1.465	0	0	0	0	0	0	0	0	0	0	0	0	0	0	0	0	0	0
1.47	0	0	0	0	0	0	0	0	0	0	0	0	0	0	0	0	0	0
1.475	0	0	0	0	0	0	0	0	0	0	0	0	0	0	0	0	0	0
1.48	0	0	0	0	0	0	0	0	0	0	0	0	0	0	0	0	0	0
1.485	0	0	0	0	0	0	0	0	0	0	0	0	0	0	0	0	0	0
1.49	0	0	0	0	0	0	0	0	0	0	0	0	0	0	0	0	0	0
1.495	0	0	0	0	0	0	0	0	0	0	0	0	0	0	0	0	0	0
1.5	0	0	0	0	0	0	0	0	0	0	0	0	0	0	0	0	0	0
1.505	0	0	0	0	0	0	0	0	0	0	0	0	0	0	0	0	0	0
1.51	0	0	0	0	0	0	0	0	0	0	0	0	0	0	0	0	0	0
1.515	0	0	0	0	0	0	0	0	0	0	0	0	0	0	0	0	0	0
1.52	0	0	0	0	0	0	0	0	0	0	0	0	0	0	0	0	0	0
1.525	0	0	0	0	0	0	0	0	0	0	0	0	0	0	0	0	0	0
1.53	0	0	0	0	0	0	0	0	0	0	0	0	0	0	0	0	0	0
1.535	0	0	0	0	0	0	0	0	0	0	0	0	0	0	0	0	0	0
1.54	0	0	0	0	0	0	0	0	0	0	0	0	0	0	0	0	0	0
1.545	0	0	0	0	0	0	0	0	0	0	0	0	0	0	0	0	0	0
1.55	0	0	0	0	0	0	0	0	0	0	0	0	0	0	0	0	0	0
1.555	0	0	0	0	0	0	0	0	0	0	0	0	0	0	0	0	0	0
1.56	0	0	0	0	0	0	0	0	0	0	0	0	0	0	0	0	0	0
1.565	0	0	0	0	0	0	0	0	0	0	0	0	0	0	0	0	0	0
1.57	0	0	0	0	0	0	0	0	0	0	0	0	0	0	0	0	0	0
1.575	0	0	0	0	0	0	0	0	0	0	0	0	0	0	0	0	0	0
1.58	0	0	0	0	0	0	0	0	0	0	0	0	0	0	0	0	0	0
1.585	-42.5352	38.2194	12.0433	1.25208	0	-0.300978	-2.32782	2.09163	0.659097	0	0	0	0	0	0	0	0	0
1.59	-95.9632	177.778	2.27642	1.16531	0	-0.228054	-0.117344	0.217388	0.00278361	0	0	0	0	0	0	0	0	0
1.595	-167.243	407.56	-28.8914	1.10486	0	-0.226923	1.5923	-3.88032	0.275071	0	0	0	0	0	0	0	0	0
1.6	-232.767	719.209	-81.0203	1.08862	0	-0.239155	2.49476	-7.70837	0.868363	0	0	0	0	0	0	0	0	0
1.605	-264.099	1088.91	-143.83	1.07248	0	-0.250212	2.32114	-9.57033	1.2641	0	0	0	0	0	0	0	0	0
1.61	-256.183	1493.22	-197.344	1.05579	0	-0.259504	0.801474	-4.67155	0.617394	0	0	0	0	0	0	0	0	0
1.615	-241.548	1889.68	-220.519	1.03852	0	-0.265965	-1.05929	8.287	-0.967063	0	0	0	0	0	0	0	0	0
1.62	-263.061	2221.1	-200.211	1.02426	0	-0.269753	-2.44289	20.626	-1.85924	0	0	0	0	0	0	0	0	0
1.625	-335.29	2452.16	-131.532	1.01622	0	-0.271309	-3.52122	25.7526	-1.38135	0	0	0	0	0	0	0	0	0
1.63	-432.335	2593.45	-26.3323	1.01194	0	-0.271478	-4.34908	26.0888	-0.26489	0	0	0	0	0	0	0	0	0
1.635	-509.452	2680.74	89.5298	1.0047	0	-0.270645	-4.262	22.4267	0.748993	0	0	0	0	0	0	0	0	0
1.64	-530.706	2743.7	181.889	0.989729	0	-0.269142	-2.22594	11.5079	0.762894	0	0	0	0	0	0	0	0	0
1.645	-486.774	2790.94	222.215	0.965047	0	-0.267861	0.539839	-3.0952	-0.24644	0	0	0	0	0	0	0	0	0
1.65	-391.802	2819.37	200.599	0.931435	0	-0.267946	1.81859	-13.0864	-0.931102	0	0	0	0	0	0	0	0	0
1.655	-268.823	2828.22	134.406	0.894291	0	-0.269273	1.28905	-13.5618	-0.644499	0	0	0	0	0	0	0	0	0
1.66	-143.857	2818.64	57.6999	0.859287	0	-0.270742	0.279543	-5.47719	-0.112123	0	0	0	0	0	0	0	0	0
1.665	-33.3529	2784.79	0.228361	0.827612	0	-0.271445	-0.0438299	3.65955	0.000300094	0	0	0	0	0	0	0	0	0
1.67	66.9001	2724.42	-28.4447	0.798826	0	-0.2715	0.176045	7.1692	-0.0748512	0	0	0	0	0	0	0	0	0
1.675	164.868	2640.92	-38.705	0.77282	0	-0.271343	0.53877	8.63024	-0.126483	0	0	0	0	0	0	0	0	0
1.68	257.502	2529.51	-47.703	0.748991	0	-0.271166	1.50812	14.8146	-0.279383	0	0	0	0	0	0	0	0	0
1.685	334.522	2379.45	-62.0398	0.725875	0	-0.270835	3.66681	26.082	-0.680038	0	0	0	0	0	0	0	0	0
1.69	389.562	2187.75	-73.5468	0.702356	0	-0.270005	6.93006	38.9186	-1.30835	0	0	0	0	0	0	0	0	0
1.695	426.994	1958.07	-65.2457	0.676943	0	-0.268597	9.71554	44.5527	-1.48456	0	0	0	0	0	0	0	0	0
1.7	451.335	1694.81	-26.4414	0.646249	0	-0.267918	8.69381	32.6461	-0.509327	0	0	0	0	0	0	0	0	0
1.705	461.094	1400.97	39.3942	0.605832	0	-0.270911	0.391569	1.18973	0.0334542	0	0	0	0	0	0	0	0	0
1.71	452.296	1085.64	113.353	0.552158	0	-0.282812	-16.5171	-39.6456	-4.13947	0	0	0	0	0	0	0	0	0
1.715	423.347	768.361	163.748	0.481159	0	-0.312829	-38.3701	-69.6406	-14.8414	0	0	0	0	0	0	0	0	0
1.72	377.743	480.475	161.336	0.385854	0	-0.368375	-52.5366	-66.8246	-22.4386	0	0	0	0	0	0	0	0	0
1.725	317.098	256.614	97.9896	0.242715	0	-0.40953	-38.139	-30.8643	-11.7857	0	0	0	0	0	0	0	0	0
1.73	243.031	112.156	0.437937	0.330142	0	-0.235717	2.59067	1.19556	0.00466832	0	0	0	0	0	0	0	0	0
1.735	166.043	29.9338	-78.8224	0.581108	0	0.182268	13.1148	2.36431	-6.22575	0	0	0	0	0	0	0	0	0
